<?xml version="1.0" standalone="no"?>
<!DOCTYPE svg PUBLIC "-//W3C//DTD SVG 20010904//EN"
 "http://www.w3.org/TR/2001/REC-SVG-20010904/DTD/svg10.dtd">
<svg version="1.0" xmlns="http://www.w3.org/2000/svg"
 width="914.000000pt" height="755.000000pt" viewBox="0 0 914.000000 755.000000"
 preserveAspectRatio="xMidYMid meet">

<g transform="translate(0.000000,755.000000) scale(0.100000,-0.100000)"
fill="#7FFFD4" stroke="none">
<path d="M7121 7527 c-9 -24 -8 -149 4 -382 9 -177 8 -169 33 -173 21 -3 22 1
22 61 0 43 -4 67 -12 71 -10 5 -10 7 1 12 9 4 10 9 2 13 -15 9 -25 162 -22
335 l1 38 28 -17 c15 -10 38 -28 52 -41 141 -128 138 -126 180 -149 63 -35 72
-46 56 -64 -8 -9 -16 -23 -18 -31 -2 -8 -9 -21 -15 -28 -7 -7 -13 -29 -14 -48
-1 -19 -2 -42 -2 -51 -2 -37 13 -85 25 -81 16 6 28 55 21 88 -9 49 23 123 83
189 31 34 64 66 74 71 18 9 18 8 5 -17 -8 -14 -12 -30 -9 -35 3 -4 1 -8 -4 -8
-6 0 -13 -12 -18 -27 -8 -32 -9 -33 -16 -53 -3 -8 -13 -42 -20 -75 -8 -33 -18
-67 -21 -75 -4 -8 -3 -21 2 -29 11 -17 41 -7 41 14 0 9 14 29 30 45 17 16 30
26 30 22 0 -4 14 -13 32 -21 l32 -14 -25 -9 c-13 -5 -28 -10 -34 -11 -13 -3
-36 -24 -35 -34 0 -11 43 -13 56 -2 7 6 16 9 20 8 5 -1 11 0 14 1 7 3 109 9
190 11 36 1 92 -4 125 -11 33 -7 73 -13 90 -15 16 -1 37 -5 45 -8 8 -3 51 -17
95 -32 108 -37 196 -79 233 -113 118 -104 182 -166 182 -175 0 -5 11 -22 25
-39 14 -16 25 -36 25 -44 0 -8 4 -14 9 -14 5 0 11 -8 15 -17 3 -10 10 -28 16
-40 13 -32 6 -29 -42 20 -24 23 -46 42 -50 42 -3 0 -23 15 -43 33 -20 17 -41
32 -46 32 -14 0 -11 -27 6 -44 8 -8 15 -17 15 -20 0 -3 13 -28 30 -56 16 -27
27 -50 25 -50 -3 0 3 -17 14 -38 24 -47 44 -119 43 -156 0 -17 2 -35 6 -40 10
-17 11 -186 1 -192 -5 -3 -9 0 -9 7 0 15 -68 109 -94 130 -12 9 -32 26 -46 38
-57 47 -78 64 -147 111 -63 43 -113 63 -113 44 0 -5 11 -30 64 -143 10 -23 11
-23 14 -4 2 12 -4 38 -12 58 l-16 37 28 -17 c65 -42 89 -66 117 -121 17 -33
38 -70 47 -83 15 -20 19 -21 24 -7 3 9 3 28 0 42 l-7 26 25 -19 c13 -10 22
-20 20 -22 -2 -2 12 -23 31 -46 19 -23 35 -47 35 -53 0 -6 3 -12 8 -14 4 -1
14 -18 23 -37 l15 -35 21 21 c20 20 21 29 17 160 -3 76 -5 147 -5 158 0 11 -5
36 -11 55 -7 19 -13 37 -13 40 -4 16 -28 70 -45 104 -11 21 -19 41 -16 43 4 4
84 -65 115 -99 19 -22 41 -23 41 -3 0 16 -73 173 -107 230 -20 33 -63 84 -105
124 -16 14 -28 31 -28 37 0 31 -175 136 -265 160 -23 6 -80 29 -85 35 -5 5
-107 31 -140 35 -8 1 -33 5 -55 8 -117 19 -222 26 -251 16 -19 -7 -69 10 -111
37 -22 15 -23 17 -7 34 15 17 35 25 114 47 8 2 23 4 33 5 9 1 17 5 17 9 0 4 8
8 18 8 24 0 56 35 47 50 -8 13 -92 5 -110 -10 -5 -5 -12 -8 -15 -7 -17 5 -99
-43 -129 -76 -39 -43 -49 -42 -31 5 46 120 56 147 72 176 10 18 18 39 18 48 0
25 -28 27 -56 5 -14 -11 -30 -18 -35 -15 -5 3 -9 -2 -9 -10 0 -9 -4 -16 -9
-16 -5 0 -27 -18 -48 -39 -38 -40 -39 -40 -71 -24 -18 8 -32 19 -32 24 0 5 -5
9 -11 9 -7 0 -21 9 -33 21 -12 11 -55 47 -96 80 -41 32 -82 65 -90 73 -8 7
-30 21 -48 30 -32 16 -32 16 -41 -7z"/>
<path d="M6343 7043 c-4 -10 3 -22 17 -33 13 -10 31 -33 39 -51 9 -19 31 -42
51 -52 19 -10 27 -16 18 -13 -10 3 -18 2 -18 -2 0 -16 54 -107 74 -124 11 -9
17 -17 11 -18 -5 0 1 -7 13 -16 12 -8 22 -18 22 -22 0 -12 -54 -5 -94 13 -35
15 -40 15 -54 1 -14 -13 -13 -18 9 -40 13 -14 29 -26 36 -26 6 0 18 -6 26 -14
22 -23 127 -87 127 -79 0 4 5 1 10 -8 5 -9 30 -23 55 -30 29 -9 44 -18 41 -26
-3 -7 2 -13 12 -14 9 0 4 -6 -14 -12 -17 -7 -47 -26 -68 -43 l-38 -32 66 -15
c36 -8 80 -14 96 -13 26 2 37 -6 72 -52 23 -30 60 -68 83 -86 l40 -31 -1 -101
c-2 -105 1 -98 -62 -199 -7 -11 -19 -35 -27 -52 -9 -18 -19 -33 -24 -33 -5 0
-11 -8 -14 -17 -6 -18 -61 -118 -87 -160 -30 -47 18 -38 73 13 42 39 41 28 -5
-38 -24 -35 -45 -67 -48 -73 -3 -5 -27 -43 -53 -84 -27 -40 -46 -75 -44 -78 3
-2 28 7 56 21 66 34 76 33 54 -5 -24 -42 -90 -105 -132 -128 -30 -15 -39 -16
-60 -5 -15 7 -62 29 -106 50 -44 21 -82 41 -85 44 -3 4 -27 22 -55 40 -66 45
-113 89 -120 111 -7 21 -25 26 -25 7 0 -19 131 -278 141 -278 5 0 9 -6 9 -14
0 -8 3 -16 8 -18 4 -2 18 -15 31 -31 l24 -27 -47 6 c-26 3 -59 9 -72 14 -13 5
-24 8 -24 6 0 -3 -24 5 -52 16 -29 11 -64 23 -78 28 -14 4 -49 17 -78 29 -62
25 -76 21 -59 -17 12 -27 118 -142 131 -142 4 0 17 -9 29 -20 12 -12 41 -26
65 -33 36 -11 41 -15 29 -25 -34 -28 -275 -99 -382 -112 -38 -5 -96 -13 -129
-19 -32 -5 -95 -12 -140 -16 -206 -16 -981 -2 -1126 20 -132 21 -261 48 -285
61 -45 25 -75 24 -157 -2 -46 -15 -87 -30 -93 -34 -22 -16 -104 -38 -107 -29
-2 6 -31 3 -73 -7 -163 -38 -456 -96 -525 -104 -41 -5 -127 -16 -190 -25 -359
-49 -469 -59 -665 -60 -118 0 -159 4 -190 16 -22 9 -74 29 -115 45 -93 35
-154 70 -229 131 -67 55 -244 171 -341 224 -36 19 -101 56 -146 81 -45 25 -95
50 -111 55 -17 6 -72 36 -124 68 -93 56 -94 56 -154 50 -33 -4 -76 -11 -95
-17 -76 -24 -397 -251 -496 -352 -45 -46 -147 -167 -166 -198 -36 -55 -89
-160 -79 -154 6 4 2 -13 -8 -38 -11 -24 -22 -59 -25 -78 -11 -62 -17 -92 -21
-99 -3 -4 -7 -35 -9 -70 l-5 -64 19 41 c11 23 27 47 36 55 16 13 16 12 2 -16
-25 -48 -55 -142 -87 -265 -17 -63 -35 -131 -40 -150 -16 -50 -14 -90 3 -90 8
0 16 7 18 15 5 23 88 117 143 162 60 49 211 133 203 112 -4 -8 -21 -47 -39
-87 -28 -60 -31 -75 -19 -82 10 -6 24 0 47 20 92 81 280 182 342 184 42 1 161
-62 141 -74 -9 -6 -6 -12 11 -20 91 -48 334 -243 454 -365 57 -58 114 -69 337
-70 98 0 178 -1 178 -2 0 -6 -256 -136 -267 -136 -8 0 -12 -7 -11 -16 2 -9 8
-15 13 -14 6 1 50 4 100 8 49 4 114 16 145 27 30 10 60 20 67 21 7 2 16 6 19
10 4 4 19 7 33 7 27 0 134 25 233 54 32 10 60 17 63 16 10 -1 120 73 201 136
l81 64 -88 -176 c-89 -175 -105 -224 -73 -224 17 0 91 72 171 168 27 31 53 62
58 68 90 103 123 137 195 202 47 42 108 95 135 117 27 22 74 63 105 91 97 89
214 180 206 159 -5 -11 -23 -60 -41 -110 -91 -249 -105 -277 -192 -397 -120
-166 -149 -222 -100 -197 23 12 140 107 211 171 22 20 42 35 44 34 1 -2 -4
-16 -13 -32 -8 -16 -32 -74 -54 -129 -41 -106 -88 -207 -124 -267 -12 -20 -37
-65 -56 -100 -19 -34 -51 -85 -71 -113 -47 -64 -72 -112 -68 -132 2 -12 8 -11
33 8 16 13 36 23 45 21 15 -2 99 80 177 173 23 28 51 61 63 74 l20 24 0 -24
c0 -13 -5 -44 -11 -69 -6 -25 -12 -90 -14 -145 -6 -182 -21 -274 -82 -515 -26
-102 -109 -267 -206 -408 -31 -46 -57 -87 -57 -91 0 -14 -80 -82 -90 -76 -5 3
-14 -4 -20 -15 -13 -25 -86 -30 -76 -5 3 9 0 15 -8 15 -8 0 -18 -12 -24 -27
-22 -60 -90 -291 -103 -348 -7 -33 -16 -68 -21 -77 -4 -9 -11 -63 -14 -120 -3
-57 -7 -109 -10 -116 -2 -7 -6 -70 -9 -140 -3 -70 -8 -143 -11 -162 -8 -50
-14 -484 -7 -542 3 -26 11 -48 17 -48 6 0 27 -28 46 -61 40 -68 80 -98 100
-74 10 12 16 10 34 -18 15 -23 33 -34 61 -40 22 -5 47 -13 55 -18 8 -5 29 -16
45 -23 28 -13 30 -13 33 5 3 16 7 17 24 8 15 -8 22 -8 28 1 6 9 10 6 15 -9 7
-24 14 -25 49 -10 23 11 24 15 20 72 -5 64 -17 94 -43 114 -21 16 -31 16 -31
-1 0 -8 -7 -22 -16 -31 -14 -13 -14 -23 -5 -60 14 -56 14 -56 -6 -48 -25 9
-33 23 -33 58 0 25 -22 143 -47 251 -4 18 1 23 34 29 21 4 66 9 99 11 l61 3
16 -37 c20 -46 37 -128 43 -210 5 -54 3 -63 -13 -69 -29 -10 -52 -34 -47 -48
7 -17 119 45 119 65 0 8 -5 14 -11 13 -7 -1 -14 27 -18 75 -4 42 -16 102 -27
134 -10 31 -19 60 -19 64 0 3 25 4 55 2 77 -4 70 14 -12 31 -37 7 -71 18 -75
25 -6 8 -13 8 -28 -1 -11 -7 -37 -13 -58 -13 -21 0 -60 -6 -85 -14 -40 -12
-47 -12 -47 0 0 8 -4 14 -10 14 -5 0 -10 -5 -10 -10 0 -13 -79 -48 -117 -52
-23 -3 -28 1 -33 26 -3 16 -11 31 -19 34 -11 4 -13 -5 -9 -40 l5 -45 -51 -15
c-28 -9 -52 -15 -54 -13 -5 5 -3 506 3 514 2 5 5 51 6 104 1 53 6 102 10 109
7 10 9 10 9 -2 1 -33 102 -120 160 -138 35 -11 70 -10 102 3 14 5 18 -2 24
-42 3 -26 15 -73 26 -103 26 -74 30 -85 27 -85 -1 0 13 -17 32 -37 55 -59 199
-130 199 -98 0 26 23 4 48 -48 54 -107 92 -242 78 -277 -5 -14 -11 -11 -32 14
-14 17 -32 31 -39 31 -28 0 -21 -173 7 -192 37 -23 57 0 58 67 0 41 12 57 35
49 13 -5 16 -4 11 5 -4 6 -3 17 2 24 10 13 -15 107 -62 229 -36 94 -46 107
-86 114 -57 9 -149 56 -184 94 -37 41 -69 117 -87 210 -23 114 -16 473 10 550
5 14 17 53 26 88 10 34 22 62 28 62 5 0 21 8 35 19 34 24 252 151 261 151 3 1
22 14 41 30 19 17 38 30 42 30 4 0 30 16 57 35 57 41 63 42 61 13 -4 -48 -1
-52 21 -32 37 32 105 131 145 210 30 59 40 71 45 57 7 -19 6 -34 -6 -140 -6
-51 9 -83 22 -46 3 10 12 25 19 33 6 8 24 44 39 80 15 36 33 80 41 98 8 17 20
47 28 65 8 17 21 61 30 97 8 36 22 94 31 130 9 36 18 85 21 110 11 103 57 297
122 510 16 54 58 149 107 241 14 26 24 24 31 -8 3 -16 8 -36 11 -45 4 -18 6
-27 19 -113 4 -27 9 -59 10 -70 2 -11 6 -42 9 -70 3 -27 7 -66 10 -85 18 -119
15 -266 -11 -425 -10 -63 -8 -79 7 -69 16 9 127 180 134 207 40 141 56 83 56
-203 1 -102 -2 -214 -4 -250 -8 -104 -85 -327 -154 -445 -49 -83 -161 -218
-174 -209 -5 3 -14 -7 -20 -23 -11 -31 -12 -34 -3 -30 3 1 25 -36 48 -83 51
-101 124 -215 197 -307 30 -36 54 -72 55 -80 2 -13 96 -113 282 -300 51 -52
90 -98 87 -102 -5 -9 9 -15 188 -77 166 -58 433 -68 561 -22 61 22 89 41 84
55 -2 4 7 9 20 11 12 2 22 -1 22 -7 0 -16 30 -13 36 3 12 32 -67 106 -114 106
-14 0 -36 24 -72 77 -49 73 -52 81 -55 147 -2 39 -6 80 -11 91 -8 22 13 6 114
-90 84 -79 186 -245 161 -261 -8 -5 -6 -10 5 -16 11 -6 21 -4 32 6 8 9 26 16
40 16 16 0 28 8 36 25 10 22 8 29 -13 51 -30 32 -47 42 -90 49 -19 3 -35 10
-37 15 -7 21 -101 128 -152 176 -105 96 -133 108 -190 79 -17 -9 -30 -12 -30
-7 0 10 -67 32 -97 32 -11 0 -31 -10 -44 -23 -47 -44 -100 -79 -147 -94 -26
-9 -50 -21 -54 -26 -15 -24 -183 147 -266 269 -38 57 -49 75 -110 182 -14 24
-37 77 -52 118 -23 60 -26 77 -15 87 7 7 19 26 28 42 8 17 24 39 34 50 10 11
43 52 75 90 69 86 229 235 318 298 10 7 22 25 25 40 9 36 25 25 25 -17 0 -19
6 -39 14 -45 20 -16 40 19 66 115 12 44 27 99 34 124 l13 44 7 -55 c4 -30 4
-63 0 -73 -5 -14 -2 -17 16 -14 44 6 70 135 70 348 0 58 -2 125 -4 150 -3 25
-8 77 -11 115 -4 39 -10 95 -16 125 -41 248 -56 575 -31 711 9 46 17 85 18 87
9 14 234 -80 247 -103 4 -8 13 -15 18 -15 6 0 54 -34 106 -75 53 -42 110 -83
127 -92 17 -9 42 -25 56 -36 l25 -19 -55 7 c-30 4 -95 15 -145 26 -154 33
-171 22 -77 -51 71 -57 199 -131 302 -175 76 -33 266 -85 308 -85 12 0 23 -4
27 -9 7 -13 -70 -24 -179 -25 -52 -1 -91 -5 -93 -11 -3 -10 84 -40 305 -106
73 -22 166 -26 160 -6 -3 7 -34 15 -79 19 -80 8 -241 56 -233 70 3 5 9 6 13 4
4 -3 51 6 105 18 91 22 127 38 114 51 -3 3 -66 14 -139 25 -123 18 -174 33
-324 92 -69 28 -275 151 -275 165 0 6 4 5 164 -26 124 -24 140 -25 131 -11 -4
6 6 7 25 4 29 -6 37 1 22 21 -4 6 -32 22 -62 36 -82 39 -298 197 -237 174 8
-4 68 -35 133 -71 118 -64 141 -73 129 -54 -10 16 1 12 66 -20 126 -64 339
-121 507 -135 82 -8 82 -8 77 -34 -3 -14 -10 -55 -16 -91 -11 -72 -24 -96 -78
-149 -31 -31 -36 -42 -34 -75 1 -21 7 -54 14 -73 6 -19 8 -37 5 -40 -3 -4 -2
-11 3 -17 8 -10 19 -66 37 -181 3 -22 12 -69 19 -105 35 -177 46 -229 55 -269
6 -25 15 -95 21 -155 5 -61 14 -133 20 -161 5 -27 12 -70 15 -95 2 -25 7 -61
10 -80 3 -19 11 -74 18 -121 10 -60 13 -179 11 -395 -3 -319 -10 -461 -28
-504 -11 -25 -13 -40 -15 -97 -2 -27 -17 -47 -82 -110 -56 -55 -77 -82 -71
-91 6 -10 31 9 92 70 l85 83 22 125 c19 108 30 228 31 362 l1 36 31 -29 c17
-15 46 -31 65 -35 42 -8 124 0 133 13 9 13 77 63 86 63 4 0 5 -30 3 -67 -5
-64 5 -206 17 -263 3 -14 7 -56 9 -95 8 -148 23 -184 117 -268 51 -47 60 -60
65 -100 l7 -46 -54 17 c-40 13 -57 25 -72 49 -10 18 -25 33 -33 33 -18 0 -18
-2 7 -45 12 -20 20 -38 18 -40 -3 -2 -59 -6 -127 -8 l-122 -4 0 29 c0 35 -23
34 -28 -1 -4 -22 -6 -23 -75 -16 -40 4 -87 7 -104 7 -38 -2 -39 0 -17 33 15
24 12 45 -7 45 -5 0 -17 -16 -26 -35 -17 -36 -37 -45 -46 -21 -5 12 -12 11
-43 -4 -20 -11 -40 -17 -44 -15 -4 3 -5 34 -2 70 5 69 -6 85 -25 35 -16 -42
-9 -211 13 -318 4 -21 6 -21 28 -7 12 8 25 13 28 10 3 -3 11 1 18 10 7 8 21
15 31 15 11 0 19 3 20 8 2 28 9 82 15 111 l5 34 111 -6 c61 -4 114 -9 117 -13
3 -3 6 -55 6 -115 0 -72 4 -110 11 -113 16 -6 22 41 17 144 l-4 87 130 -1 130
-1 10 -40 c22 -89 22 -101 -7 -127 -15 -13 -38 -29 -52 -35 -25 -10 -62 -4
-61 10 3 30 -2 48 -21 72 l-21 27 -18 -23 c-10 -13 -21 -45 -25 -71 -7 -53
-22 -63 -78 -52 -32 5 -35 9 -34 38 2 47 -17 74 -58 82 -19 3 -37 4 -40 1 -3
-3 -8 -24 -11 -46 -7 -48 -18 -51 -103 -21 -41 14 -57 16 -62 7 -5 -8 14 -19
60 -34 37 -12 75 -22 85 -22 12 -1 24 -15 34 -41 12 -30 22 -40 39 -40 16 0
24 7 26 23 3 20 9 22 72 24 60 1 69 -1 73 -18 3 -10 9 -17 13 -14 4 3 11 -2
14 -11 6 -15 8 -15 26 1 11 10 22 26 25 35 3 10 18 21 33 25 15 3 43 17 63 30
23 15 45 22 58 18 18 -4 21 -1 21 23 l0 29 20 -32 c18 -30 22 -32 46 -21 l26
12 -6 164 c-6 160 -7 165 -31 186 -14 12 -25 25 -25 29 0 5 -22 30 -49 56 -54
52 -83 119 -63 144 8 9 7 27 -3 68 -18 70 -35 214 -36 309 -2 98 11 268 23
299 6 17 5 27 -4 32 -7 4 -14 6 -16 4 -6 -5 -20 -74 -27 -130 -8 -57 -26 -81
-97 -127 -45 -28 -54 -30 -106 -25 -47 5 -61 11 -80 34 -12 15 -28 34 -34 42
-7 9 -11 79 -10 211 1 109 -3 222 -8 252 -5 29 -19 121 -30 203 -11 83 -22
161 -24 175 -3 14 -8 52 -11 85 -11 106 -36 300 -41 314 -2 7 -13 70 -25 139
-11 70 -24 129 -30 133 -5 3 -16 44 -24 90 -8 46 -17 102 -21 124 -4 22 -10
47 -15 56 -6 12 4 28 36 59 25 25 45 51 45 59 0 8 6 22 14 30 12 14 23 67 44
210 4 33 4 34 -24 27 -41 -11 -140 -8 -204 4 -30 7 -68 14 -85 16 -80 12 -217
65 -383 147 -101 50 -191 90 -200 90 -20 -1 -93 22 -119 37 -29 16 -132 59
-228 95 -132 50 -279 79 -460 92 -127 10 -179 8 -287 -8 -69 -10 -88 -16 -88
-29 0 -15 6 -15 58 -4 32 6 118 10 197 9 216 -3 207 -2 196 -23 -25 -47 -33
-164 -36 -507 -2 -354 -4 -390 -26 -490 -14 -65 -50 -187 -54 -183 -2 2 -5 37
-6 77 -2 64 -35 210 -54 242 -4 5 -14 9 -22 7 -13 -2 -16 -22 -18 -98 -4 -121
-30 -220 -99 -363 -30 -62 -57 -122 -61 -135 -13 -44 -18 -12 -22 150 -5 207
-9 247 -39 356 -9 33 -20 52 -29 52 -15 0 -14 -19 1 -68 2 -7 -1 -25 -8 -40
-6 -15 -14 -36 -18 -47 -5 -11 -18 -45 -30 -76 -12 -30 -30 -66 -40 -79 -18
-23 -18 -18 -17 176 2 187 -3 285 -17 344 -4 14 -8 39 -10 55 -12 99 -19 141
-26 150 -4 6 -10 28 -13 49 -4 22 -11 42 -16 45 -10 7 34 103 94 205 19 32 32
62 29 68 -3 5 1 17 9 26 18 21 29 52 19 52 -11 0 -62 -54 -62 -66 0 -5 -9 -20
-20 -34 -11 -14 -20 -31 -20 -39 0 -18 -94 -217 -156 -331 -35 -64 -82 -195
-118 -330 -14 -53 -30 -109 -36 -124 -6 -16 -17 -74 -25 -130 -17 -117 -17
-115 -49 -261 -20 -89 -67 -225 -124 -355 -4 -8 -10 19 -13 60 -4 41 -10 86
-13 99 -6 28 -26 52 -26 33 0 -7 -1 -15 -1 -19 -2 -12 -38 -104 -54 -138 -22
-45 -97 -153 -90 -128 24 85 52 219 48 230 -9 24 -22 13 -28 -24 -4 -21 -16
-73 -28 -115 -24 -82 -30 -89 -137 -155 -25 -15 -67 -43 -95 -63 -27 -20 -83
-53 -123 -73 -40 -20 -105 -57 -144 -83 -39 -25 -83 -47 -97 -48 -29 -4 -43
-36 -16 -36 13 0 16 -5 11 -22 -43 -149 -49 -189 -55 -383 l-6 -200 -27 -9
c-43 -15 -111 17 -182 88 l-63 62 9 109 c9 110 15 153 40 255 l13 55 5 -75 c3
-41 9 -75 15 -75 5 0 15 51 22 114 6 63 14 133 17 155 3 23 5 44 5 47 1 4 18
9 39 11 51 7 144 48 139 62 -5 15 -43 8 -86 -15 -20 -10 -46 -19 -60 -19 -20
0 -21 2 -11 15 7 8 10 21 7 29 -4 10 0 14 11 14 27 -2 92 22 92 34 0 6 3 9 6
5 9 -9 91 71 116 113 12 19 48 75 81 124 32 49 64 102 69 119 6 16 23 50 37
76 39 69 49 101 91 276 22 94 41 201 45 260 3 55 8 102 10 105 1 3 6 57 10
120 4 63 11 125 16 138 5 13 9 37 9 53 0 39 -24 38 -60 -3 -15 -18 -58 -68
-95 -110 -36 -43 -87 -92 -112 -110 l-46 -31 46 65 c26 36 47 70 47 74 0 5 18
41 41 79 73 125 121 224 176 370 20 50 41 100 63 147 32 66 -6 67 -70 1 -54
-56 -160 -147 -160 -138 0 9 37 61 81 115 40 48 169 343 169 385 0 8 13 44 30
79 75 165 115 285 100 300 -7 7 -13 7 -18 1 -4 -6 -61 -41 -127 -79 -66 -38
-138 -83 -160 -99 -42 -33 -228 -190 -256 -216 -30 -29 -59 -51 -59 -45 0 13
44 84 52 84 4 0 8 5 8 12 0 6 11 25 23 42 32 42 40 76 19 76 -15 0 -99 -60
-112 -79 -23 -36 -262 -181 -298 -181 -4 0 -81 -26 -172 -59 -171 -61 -278
-85 -343 -79 l-38 3 71 50 c143 101 190 140 190 159 0 14 -5 17 -22 11 -26 -7
-39 -9 -198 -30 -218 -29 -247 -21 -372 100 -84 82 -130 120 -212 178 -26 18
-74 52 -109 76 -34 24 -95 69 -135 100 -112 85 -135 100 -159 100 -13 1 -24 9
-28 21 -7 22 -1 22 -120 -6 -57 -14 -139 -42 -248 -86 -27 -11 -50 -18 -52
-16 -2 2 30 47 71 101 64 85 87 127 69 127 -3 0 -52 -37 -108 -83 -57 -45
-121 -95 -143 -112 -21 -16 -46 -38 -56 -47 -10 -10 -20 -18 -23 -18 -7 1 -75
-46 -116 -78 -36 -30 -37 -21 -5 85 28 93 48 134 87 183 16 19 29 39 29 45 0
5 -5 3 -10 -5 -8 -13 -10 -13 -10 2 0 22 113 160 196 238 61 57 184 154 236
185 55 33 157 106 160 114 1 5 42 16 90 25 95 16 126 11 183 -30 17 -12 76
-44 131 -72 56 -28 144 -76 197 -106 53 -31 99 -56 102 -56 2 0 24 -13 47 -29
24 -15 63 -41 88 -57 25 -16 47 -32 48 -36 2 -5 9 -8 14 -8 6 0 45 -26 86 -57
84 -66 172 -126 172 -119 0 3 21 -4 48 -15 67 -30 171 -66 212 -75 37 -7 279
-7 320 1 13 3 56 7 95 10 40 3 105 9 146 15 41 5 94 12 119 15 181 23 318 41
340 46 10 2 146 27 210 39 36 6 72 14 80 17 8 4 56 14 105 24 50 9 101 20 115
24 27 8 12 -2 -110 -66 -177 -95 -302 -191 -278 -214 2 -3 29 2 59 10 144 40
217 57 263 61 28 2 71 8 96 13 25 6 65 12 89 15 l45 5 -62 -56 c-107 -94 -118
-148 -23 -113 42 16 192 55 323 84 16 4 16 2 2 -26 -8 -16 -27 -63 -41 -105
-27 -82 -23 -104 18 -82 22 11 23 11 10 -4 -26 -33 1 -16 77 46 212 174 385
249 627 272 74 7 105 15 105 25 0 5 8 9 18 8 9 0 66 3 126 6 60 3 137 2 170
-4 34 -5 77 -11 96 -14 60 -7 173 -27 180 -31 4 -2 21 -7 38 -10 18 -3 65 -13
105 -21 39 -9 81 -17 91 -18 28 -2 31 21 4 27 -13 3 -49 13 -81 22 -85 23
-256 55 -382 70 -182 22 -469 3 -600 -38 -28 -9 -81 -26 -120 -37 -77 -23
-234 -106 -374 -198 -50 -33 -91 -59 -91 -57 0 11 57 134 72 157 35 51 15 62
-72 40 -30 -7 -73 -17 -95 -21 -43 -8 -151 -36 -200 -51 l-30 -9 31 27 c51 45
115 96 140 112 13 8 24 18 24 23 0 22 -422 -28 -478 -57 -29 -15 -92 -31 -92
-23 0 3 33 24 73 47 39 24 88 53 107 65 78 48 299 152 375 175 22 7 46 17 52
22 18 15 83 5 213 -30 63 -18 140 -34 170 -37 30 -3 91 -9 135 -14 235 -24
1126 -18 1210 9 17 5 53 11 80 14 78 7 110 15 253 62 164 54 222 80 222 99 0
8 -3 14 -7 13 -18 -3 -123 30 -133 42 -3 4 -25 20 -50 37 -25 17 -58 45 -74
61 l-28 30 102 -34 c139 -47 260 -65 309 -46 l24 9 -34 29 c-63 54 -106 106
-142 170 -20 35 -30 61 -23 57 6 -5 44 -30 84 -56 40 -27 82 -49 92 -50 11 -1
22 -7 24 -14 3 -7 13 -13 22 -13 9 0 28 -8 42 -19 15 -10 39 -17 55 -15 35 4
116 50 140 81 10 13 24 29 30 36 24 25 47 76 47 101 0 29 -25 35 -63 15 -22
-12 -22 -12 -3 10 11 11 16 21 12 21 -4 0 -1 7 8 15 20 20 106 159 106 172 0
5 9 20 20 33 21 24 22 41 4 47 -10 3 -40 -17 -76 -53 -10 -10 -18 -13 -18 -8
0 5 8 21 18 34 9 13 40 65 68 114 28 49 56 92 64 94 7 3 10 0 7 -5 -3 -5 1
-38 9 -74 20 -89 19 -88 27 -95 4 -4 7 -16 7 -26 0 -10 5 -18 10 -18 6 0 10
-4 10 -9 0 -9 47 -88 94 -158 37 -55 72 -79 92 -62 10 9 11 15 3 25 -12 14
-15 168 -5 248 6 50 16 75 16 39 0 -30 36 -138 57 -170 10 -15 54 -64 98 -110
104 -107 226 -238 266 -286 36 -43 41 -68 41 -215 l1 -104 23 24 c39 40 135
208 161 282 46 131 37 370 -16 459 -13 20 -20 37 -17 37 4 0 38 -18 77 -40 39
-22 75 -40 80 -40 31 0 -29 133 -82 181 -16 14 -29 30 -29 34 0 5 -14 23 -31
41 -51 53 -24 60 35 9 29 -25 58 -45 64 -45 5 0 12 -7 16 -15 3 -8 10 -15 15
-15 6 0 21 -11 36 -24 28 -26 74 -36 185 -41 84 -3 120 -19 205 -89 28 -22 52
-43 55 -47 3 -3 41 -9 86 -13 130 -10 253 -71 311 -155 30 -43 77 -76 93 -66
6 4 7 11 4 17 -4 7 -2 8 4 4 7 -4 12 -11 12 -16 0 -15 -93 -111 -124 -127 -27
-14 -30 -14 -65 20 -41 39 -99 71 -151 82 -19 4 -53 16 -74 26 -22 11 -48 19
-58 19 -10 0 -18 4 -18 9 0 5 -14 14 -32 22 -39 16 -123 73 -163 111 l-30 28
33 -6 c25 -5 32 -3 32 9 0 13 -43 33 -63 29 -4 -1 -17 -4 -29 -6 -30 -4 -33
-22 -7 -43 12 -10 31 -28 43 -40 11 -12 60 -46 108 -76 48 -30 86 -56 84 -58
-12 -12 -12 -91 0 -106 12 -17 16 -16 68 12 31 17 56 33 56 38 0 11 60 -1 105
-23 51 -24 109 -67 98 -73 -103 -62 -187 -89 -268 -87 -52 1 -66 4 -90 17 -11
5 -26 8 -32 6 -7 -3 -13 0 -13 6 0 6 -3 10 -7 9 -13 -3 -57 13 -155 56 -20 9
-39 16 -43 16 -3 0 -30 11 -59 24 -81 37 -135 51 -147 39 -8 -8 0 -14 25 -23
31 -10 36 -15 30 -33 -4 -12 -10 -24 -14 -27 -19 -13 -26 -99 -16 -200 4 -41
9 -174 11 -294 l4 -220 -29 60 c-17 32 -34 59 -40 58 -28 -3 -29 -5 -19 -31
15 -39 26 -179 29 -358 2 -101 -20 -315 -32 -315 -8 0 -12 29 -10 62 2 19 -25
44 -36 34 -4 -4 -7 -31 -8 -59 -1 -29 -4 -68 -7 -87 -4 -19 -11 -61 -16 -94
-6 -32 -14 -63 -19 -70 -5 -6 -15 -29 -22 -51 -16 -50 -55 -117 -63 -109 -3 4
-2 15 4 25 5 11 7 19 4 19 -3 0 0 10 7 23 7 12 13 30 14 40 1 9 2 18 4 20 1 1
3 11 6 22 13 63 17 95 18 135 1 38 -2 45 -19 45 -15 0 -23 -12 -33 -48 -7 -27
-25 -65 -38 -85 -13 -20 -30 -46 -37 -56 -32 -50 -137 -160 -192 -201 -22 -16
-43 -34 -47 -40 -4 -5 -10 -7 -13 -3 -3 3 5 17 19 31 14 15 26 34 26 43 0 9
16 50 35 90 19 40 35 77 35 83 0 6 8 26 17 46 14 29 15 38 4 44 -26 16 -47 0
-61 -46 -8 -28 -35 -73 -68 -112 -65 -78 -148 -161 -160 -161 -4 0 -18 -9 -30
-20 -27 -25 -29 -12 -3 21 10 13 21 34 25 47 4 12 11 22 15 22 9 0 34 73 34
98 0 9 4 22 9 29 5 7 11 22 13 35 2 13 10 55 18 93 20 91 30 172 22 184 -11
20 -35 -2 -47 -43 -7 -22 -16 -44 -21 -47 -4 -3 -9 -13 -11 -21 -1 -9 -7 -22
-13 -29 -5 -8 -12 -21 -15 -29 -2 -8 -10 35 -18 95 -7 61 -15 121 -16 135 -8
54 -15 127 -17 170 -3 55 -30 68 -49 23 -7 -15 -15 -30 -19 -33 -6 -5 -37 -93
-43 -126 -3 -10 -9 -30 -15 -44 l-10 -25 -2 30 c-1 17 -3 44 -5 60 -4 38 -4
208 0 232 16 86 17 113 4 113 -12 0 -98 -92 -98 -105 0 -3 -11 -21 -25 -39
-14 -18 -25 -38 -25 -44 0 -6 -5 -14 -11 -18 -8 -4 -9 0 -4 15 3 11 2 21 -3
21 -6 0 -8 9 -5 20 3 11 1 26 -5 33 -8 10 -23 60 -27 92 -1 6 -5 19 -10 30 -5
11 -21 49 -35 83 -15 35 -33 71 -41 80 -8 10 -25 33 -39 52 -26 37 -34 44 -91
85 -53 38 -78 39 -112 7 -27 -25 -67 -98 -67 -121 0 -6 -4 -11 -9 -11 -5 0
-13 -10 -16 -22 -4 -13 -13 -36 -20 -53 -19 -43 -52 -154 -59 -195 -3 -19 -8
-46 -11 -60 -5 -21 -14 -166 -15 -224 0 -15 -3 -16 -15 -6 -8 7 -15 20 -15 30
0 10 -7 23 -15 30 -8 7 -15 19 -15 26 0 8 -4 14 -10 14 -5 0 -10 5 -10 11 0 6
-20 58 -45 115 -42 97 -45 108 -45 193 0 56 -4 91 -10 91 -50 0 -23 -269 33
-325 10 -9 15 -20 12 -25 -3 -4 11 -36 30 -70 19 -34 35 -66 35 -71 0 -6 9
-19 20 -31 10 -12 17 -25 14 -30 -3 -4 0 -8 5 -8 6 0 11 -6 11 -13 0 -19 33
-47 54 -47 14 0 16 5 10 17 -10 24 -11 112 -1 198 4 39 9 97 12 130 3 33 12
85 21 115 21 72 83 219 106 249 10 13 18 30 18 37 0 8 4 14 9 14 5 0 12 9 16
19 10 32 34 33 63 2 41 -43 86 -95 99 -117 43 -68 83 -144 83 -157 0 -8 7 -31
15 -51 8 -20 13 -36 10 -36 -2 0 0 -12 7 -27 12 -31 16 -58 24 -155 3 -38 10
-68 15 -68 10 0 40 55 33 62 -2 3 2 11 11 18 8 7 15 18 15 25 0 7 16 29 35 49
19 20 38 43 42 51 5 7 8 -52 7 -132 -1 -200 25 -329 63 -321 12 2 17 18 20 63
4 78 7 96 19 120 6 11 17 39 24 63 16 51 23 47 26 -15 1 -27 3 -48 4 -48 1 0
3 -15 6 -34 2 -19 7 -46 9 -60 3 -14 8 -44 10 -66 8 -72 15 -119 20 -124 3 -2
-1 -12 -9 -20 -9 -10 -12 -22 -7 -29 6 -10 16 -4 39 19 18 18 34 41 38 51 3
10 9 18 14 18 5 0 11 8 14 18 2 9 2 -1 -1 -23 -3 -22 -12 -53 -19 -69 -8 -17
-17 -43 -20 -60 -3 -16 -8 -34 -12 -40 -3 -6 -8 -19 -9 -28 -2 -10 -21 -53
-43 -95 -42 -80 -116 -167 -204 -238 -65 -53 -146 -137 -146 -151 0 -7 -6 -14
-13 -17 -12 -5 -70 -112 -72 -132 0 -5 -6 -20 -13 -33 -7 -12 -11 -26 -8 -31
5 -7 -12 -95 -59 -301 -8 -36 -16 -81 -19 -100 -2 -19 -11 -83 -20 -142 -17
-108 -22 -312 -17 -688 3 -159 6 -190 22 -220 l19 -35 -7 180 c-16 448 -4 748
37 915 5 19 14 67 20 105 6 39 15 81 20 95 4 14 13 50 20 80 7 30 20 69 29 85
9 17 16 31 16 31 0 1 11 5 25 9 19 6 22 5 14 -5 -8 -8 -9 -23 -4 -43 6 -25 22
-308 21 -377 0 -8 5 -62 11 -120 5 -58 12 -127 14 -155 8 -106 5 -465 -7 -641
-8 -133 -9 -188 -1 -196 14 -14 18 6 32 166 9 100 12 362 8 596 0 8 -4 69 -8
135 -17 233 -22 331 -25 460 -2 72 -9 145 -14 164 -6 19 -10 35 -8 36 1 0 21
14 45 29 41 28 69 32 37 6 -17 -14 -21 -50 -5 -50 5 0 29 9 52 19 24 11 73 33
111 50 37 16 67 35 67 42 0 7 3 10 6 6 6 -6 8 -5 65 43 42 35 54 38 37 10 -9
-14 -10 -22 -1 -31 8 -8 23 -3 57 20 25 17 49 38 53 45 12 20 85 98 108 116
19 15 19 14 4 -10 -9 -14 -20 -38 -24 -55 -10 -38 -10 -35 -22 -66 -18 -43
-42 -129 -36 -129 3 0 0 -6 -6 -14 -6 -8 -11 -18 -9 -22 1 -5 -3 -25 -10 -44
-7 -20 -13 -51 -15 -70 -2 -20 -6 -40 -10 -47 -10 -16 -37 -171 -37 -218 0
-22 -10 -83 -21 -135 -30 -141 -64 -354 -80 -515 -21 -206 -31 -547 -16 -597
5 -21 3 -32 -13 -48 -36 -36 -64 -35 -148 6 -42 21 -83 38 -90 37 -7 0 -23 18
-35 41 -21 39 -22 40 -25 15 -2 -15 4 -44 13 -65 65 -150 100 -290 139 -552 2
-13 0 -40 -4 -60 -21 -99 -21 -102 0 -102 14 0 20 7 21 23 1 17 2 18 6 4 3
-10 -1 -25 -8 -33 -10 -12 -8 -19 10 -37 11 -13 21 -29 21 -35 0 -7 10 -16 23
-21 12 -5 38 -20 57 -33 45 -31 112 -55 175 -64 28 -3 54 -9 59 -12 5 -3 30
-7 55 -9 25 -2 62 -5 83 -7 63 -5 160 15 262 55 54 21 103 39 110 39 7 0 11
20 11 52 0 52 1 53 28 50 58 -6 33 57 -30 74 -12 3 -27 19 -34 36 -22 54 -85
142 -143 201 -49 50 -61 57 -95 57 -33 0 -40 -4 -45 -24 -5 -20 -19 -28 -76
-46 -58 -18 -74 -20 -86 -9 -22 18 0 29 64 29 42 0 52 3 52 16 0 15 -10 16
-85 11 l-84 -6 -35 56 c-50 80 -105 258 -113 368 -11 154 -2 612 12 635 2 3 6
33 9 66 6 61 44 282 71 414 9 41 18 86 21 100 3 14 10 43 16 65 6 22 12 68 13
101 1 34 6 68 11 75 4 7 11 31 15 54 12 66 56 237 73 283 8 23 13 42 9 42 -3
0 -1 6 4 13 5 6 20 46 33 87 13 41 27 77 30 80 4 3 25 36 48 73 22 37 43 63
47 58 8 -14 45 9 45 28 0 8 3 12 6 8 3 -3 18 -1 32 4 20 7 35 27 60 80 17 38
32 76 32 84 0 8 5 17 10 20 6 4 8 10 5 15 -3 5 0 21 6 37 6 15 14 46 19 68 6
32 8 35 9 12 1 -28 25 -47 41 -31 5 5 11 29 15 54 3 25 8 56 10 70 2 14 8 45
12 70 4 25 8 141 8 259 0 118 2 206 4 195 5 -27 21 -44 42 -44 18 0 19 11 14
268 -4 226 -10 368 -19 467 -1 11 1 25 5 30 7 10 9 16 9 38 0 6 7 20 15 31 13
18 15 18 43 -3 17 -12 37 -21 46 -21 8 0 31 -9 51 -20 20 -11 40 -20 45 -20 5
0 21 -5 37 -12 15 -6 33 -12 38 -14 6 -2 41 -15 78 -29 130 -48 273 -19 472
98 63 37 115 79 115 93 0 6 48 72 68 92 7 8 10 18 7 23 -4 5 -2 9 2 9 5 0 15
16 22 36 11 30 11 38 0 45 -11 7 -11 9 2 9 9 0 19 7 23 15 4 11 -9 22 -50 40
-60 26 -124 46 -124 38 0 -2 -7 3 -16 11 -8 9 -24 17 -35 17 -32 2 -37 4 -45
12 -4 4 -15 7 -24 7 -16 0 -190 86 -200 99 -3 3 -25 19 -50 36 -83 54 -122 88
-111 95 12 7 52 181 44 193 -9 14 -23 -4 -33 -46 -6 -23 -15 -51 -20 -62 -5
-11 -14 -37 -20 -57 -11 -35 -9 -39 22 -74 33 -36 111 -94 128 -94 4 0 10 -4
12 -9 4 -11 154 -101 168 -101 5 0 21 -5 37 -12 32 -13 52 -19 70 -20 26 -2
-6 -82 -37 -93 -8 -4 -19 0 -25 8 -13 19 -125 81 -125 70 0 -4 -4 -3 -8 4 -8
12 -41 21 -107 28 -68 8 -89 15 -127 46 -20 16 -42 29 -48 29 -6 0 -13 7 -16
15 -12 31 -85 53 -183 55 -91 1 -151 15 -166 39 -4 7 -25 24 -47 39 -64 42
-68 45 -101 72 -76 61 -87 77 -89 122 0 24 -2 55 -2 70 -1 22 5 31 30 43 18 8
37 15 43 15 6 0 11 5 11 10 0 6 -5 10 -11 10 -17 0 -93 -22 -102 -30 -13 -11
-17 -52 -6 -72 8 -15 8 -19 0 -14 -14 9 -14 -14 -1 -49 5 -14 12 -40 15 -57
10 -54 75 -154 152 -235 12 -12 24 -33 28 -45 5 -17 4 -19 -4 -9 -5 8 -17 16
-26 17 -9 1 -40 21 -69 43 -54 42 -86 52 -86 27 0 -16 39 -87 52 -97 13 -8 43
-118 54 -194 2 -16 6 -35 8 -42 3 -6 2 -14 -1 -17 -3 -3 -7 -33 -9 -68 -4 -88
-12 -125 -40 -186 -14 -29 -22 -57 -19 -62 3 -6 2 -10 -2 -10 -5 0 -21 -25
-37 -55 -15 -30 -28 -55 -29 -55 -1 0 -3 36 -3 79 -2 71 -21 143 -44 161 -4 3
-15 20 -25 38 -11 17 -23 32 -27 32 -4 0 -8 7 -8 15 0 8 -4 15 -10 15 -13 0
-180 167 -180 180 0 6 -5 10 -10 10 -6 0 -22 12 -36 28 -13 15 -37 41 -53 57
-57 62 -75 119 -77 245 -1 63 -4 114 -8 113 -3 -2 -10 -3 -14 -3 -4 0 -13 -17
-19 -37 -48 -159 -55 -193 -55 -279 l-1 -90 -21 21 c-12 12 -30 40 -41 63 -11
23 -23 42 -26 42 -22 0 -86 245 -90 345 -3 65 13 230 26 265 21 59 83 169 112
200 30 31 77 109 70 116 -3 3 -20 -8 -38 -24 -27 -23 -41 -28 -67 -25 -18 3
-35 9 -38 14 -3 5 -14 9 -25 9 -10 0 -27 4 -37 9 -19 11 -73 25 -84 23 -5 -1
-8 2 -8 7 0 5 -8 8 -17 7 -10 -2 -20 0 -23 3 -6 7 -57 33 -120 60 -25 11 -61
34 -82 53 -32 29 -61 54 -145 126 -13 11 -23 24 -23 31 0 6 -4 11 -9 11 -9 0
-81 66 -81 74 0 4 15 3 33 0 17 -4 43 -7 57 -8 14 -1 31 -5 38 -9 6 -4 26 -10
44 -12 45 -6 120 -21 138 -28 13 -5 98 -17 138 -20 6 0 12 -4 12 -9 0 -5 15
-8 33 -6 18 1 38 -1 44 -5 6 -4 66 -7 134 -8 131 -1 264 22 256 45 -4 12 -33
12 -117 1 -57 -8 -247 -8 -259 0 -4 2 -36 7 -72 10 -35 4 -71 9 -79 12 -8 3
-24 7 -35 9 -39 6 -81 15 -135 29 -30 7 -68 16 -85 19 -16 3 -52 10 -80 17
-89 19 -135 20 -142 2z m172 -183 c10 -11 16 -20 13 -20 -3 0 -13 9 -23 20
-10 11 -16 20 -13 20 3 0 13 -9 23 -20z m87 -79 c64 -58 184 -137 224 -147 16
-4 44 -16 62 -26 18 -10 41 -18 50 -18 10 0 43 -9 74 -20 31 -11 70 -21 86
-22 27 -2 29 -4 20 -23 -6 -11 -23 -36 -38 -55 -30 -40 -59 -101 -85 -178
l-17 -54 -31 29 c-16 15 -45 44 -63 63 l-33 35 70 11 c48 7 76 17 91 32 29 29
16 38 -26 18 -44 -21 -242 -23 -262 -3 -2 2 15 11 39 21 69 27 110 50 111 61
1 5 -27 17 -61 26 -35 9 -63 15 -63 13 0 -6 -164 80 -182 95 -9 8 -15 18 -12
23 3 5 11 4 18 -1 18 -15 112 -25 120 -13 3 5 -4 16 -17 25 -33 22 -147 136
-147 147 0 20 19 9 72 -39z m1958 -1404 l32 -14 -35 -21 c-40 -23 -47 -20 -47
20 0 32 5 33 50 15z m-8100 -775 c-35 -43 -64 -112 -45 -112 3 0 31 13 63 29
31 15 71 31 87 35 17 4 44 14 60 21 103 46 255 79 255 55 0 -5 15 -16 34 -24
18 -8 73 -44 122 -82 49 -37 107 -79 129 -93 101 -66 287 -212 355 -279 41
-40 88 -80 104 -89 43 -23 194 -27 311 -9 54 8 101 14 103 12 1 -2 -56 -45
-128 -96 -72 -51 -129 -98 -127 -104 10 -28 254 -1 370 40 40 14 110 38 157
54 134 43 260 102 325 150 33 25 62 47 65 50 3 3 16 14 30 25 l24 20 -15 -25
c-36 -59 -67 -117 -74 -137 -18 -61 81 -2 225 134 19 18 43 36 53 39 9 3 17 9
17 13 0 4 19 21 43 38 23 17 53 41 67 53 14 12 54 38 90 57 36 20 82 46 103
60 l38 24 -5 -23 c-9 -48 -55 -135 -83 -156 -147 -114 -283 -229 -452 -382
-117 -106 -136 -126 -276 -288 -53 -62 -99 -112 -101 -110 -3 4 113 239 159
323 20 35 22 55 6 55 -8 0 -9 4 0 13 6 8 8 16 5 20 -3 3 -22 -11 -42 -31 -57
-57 -202 -166 -257 -195 -61 -32 -154 -61 -260 -82 -44 -9 -111 -27 -150 -40
-38 -13 -92 -26 -120 -30 l-50 -6 45 26 c41 25 155 87 222 122 34 18 94 86 80
91 -6 2 -38 -11 -71 -28 -100 -50 -164 -60 -346 -55 -88 3 -175 10 -194 16
-19 7 -89 62 -165 132 -72 66 -149 131 -171 146 -23 14 -66 51 -96 82 -31 31
-87 73 -124 94 -39 21 -70 46 -73 57 -4 18 -10 19 -56 13 -56 -7 -185 -66
-288 -132 l-68 -43 26 58 c14 31 32 67 40 79 25 39 21 39 -74 -3 -29 -13 -55
-24 -58 -24 -11 0 -118 -68 -144 -91 -14 -12 -45 -41 -69 -63 -24 -23 -41 -36
-37 -29 3 6 11 33 16 60 15 78 17 85 35 143 34 111 59 176 79 204 13 20 16 31
8 34 -6 2 23 27 66 55 42 28 82 57 87 64 14 18 149 121 154 117 2 -1 -16 -25
-39 -52z m4413 -812 c31 -7 55 -16 53 -19 -3 -3 -11 -41 -20 -84 -16 -76 -25
-355 -12 -375 3 -5 10 -63 16 -128 6 -65 18 -156 25 -202 22 -123 30 -238 30
-407 0 -157 -6 -235 -16 -235 -8 0 -29 113 -29 151 0 27 -38 95 -47 85 -4 -3
-6 -51 -4 -105 1 -77 -4 -125 -24 -213 -27 -117 -43 -154 -42 -96 2 57 -13 98
-34 98 -15 0 -19 -7 -19 -31 0 -54 -27 -92 -125 -174 -123 -103 -186 -164
-260 -256 -109 -134 -155 -214 -147 -255 5 -27 5 -27 17 -5 10 21 13 17 39
-47 29 -75 129 -250 183 -322 70 -92 214 -230 272 -260 19 -10 25 -10 32 1 4
8 2 17 -8 24 -12 9 -3 16 51 39 36 15 86 46 111 68 41 36 48 39 85 33 22 -4
40 -10 40 -14 0 -9 -151 -84 -202 -101 -21 -6 -38 -16 -38 -22 0 -29 155 29
285 108 38 22 100 37 66 15 -11 -7 -12 -13 -3 -23 6 -8 15 -41 18 -74 l7 -59
-38 33 c-28 25 -40 31 -46 21 -5 -9 5 -25 32 -50 42 -38 45 -52 28 -114 -19
-69 -41 -108 -88 -159 -25 -27 -38 -46 -28 -43 15 6 16 3 7 -13 -16 -30 -22
-31 -124 -20 -82 8 -274 61 -325 90 -19 10 -301 293 -301 301 0 4 16 3 35 -2
46 -13 136 4 178 32 53 36 73 69 42 69 -8 0 -15 -4 -15 -9 0 -5 -25 -22 -55
-37 -48 -23 -64 -26 -120 -22 -37 3 -78 14 -97 25 -31 18 -151 163 -222 268
-18 28 -58 97 -89 155 l-55 105 52 55 c65 71 164 219 194 290 13 30 27 64 32
75 5 11 11 31 14 45 2 14 14 56 25 95 12 38 21 81 21 95 0 14 4 30 8 35 5 6
19 37 32 70 13 33 47 107 76 165 60 122 102 248 111 332 3 32 7 57 9 55 8 -8
23 -142 25 -219 2 -86 2 -86 24 -76 13 6 30 29 39 52 19 49 54 181 61 228 19
132 25 226 25 383 -1 309 2 403 16 518 4 34 7 69 5 78 -2 15 6 15 77 4 44 -7
104 -19 135 -25z m2878 -115 c-10 -41 -134 -245 -153 -253 -5 -2 -8 -8 -8 -14
0 -5 -21 -35 -47 -66 -27 -31 -59 -70 -73 -86 -14 -16 -37 -43 -53 -60 l-27
-31 10 27 c5 15 19 47 30 70 11 23 20 48 20 55 0 29 -23 9 -80 -69 -33 -45
-60 -78 -60 -75 0 7 -19 -9 -65 -54 -28 -26 -175 -101 -175 -88 0 8 27 40 95
113 36 39 58 106 35 106 -5 0 -23 -13 -40 -30 -17 -16 -28 -30 -25 -30 3 0
-24 -27 -62 -59 -37 -33 -71 -57 -75 -55 -4 3 -8 1 -8 -4 0 -5 -16 -17 -35
-28 -19 -10 -35 -22 -35 -26 0 -5 -3 -7 -7 -6 -5 1 -21 -6 -36 -16 -15 -10
-31 -16 -34 -12 -7 7 30 79 55 109 8 9 11 17 6 17 -5 0 -1 5 9 11 9 6 15 14
12 20 -4 5 1 9 9 9 9 0 16 4 16 9 0 5 16 26 35 45 19 20 35 34 35 30 0 -3 13
7 29 23 16 15 48 44 72 63 23 19 53 45 66 56 13 12 37 27 53 34 17 7 30 16 30
20 0 4 13 13 29 19 15 7 63 48 105 92 42 43 76 75 76 71 -1 -4 -12 -25 -25
-47 -14 -22 -28 -47 -31 -55 -4 -8 -18 -30 -31 -48 -20 -26 -22 -36 -13 -47
10 -12 19 -11 62 11 28 14 56 30 62 35 49 39 127 109 149 134 57 65 97 117 97
128 0 6 3 8 6 4 4 -3 1 -27 -5 -52z m-5294 -2057 c-3 -8 -6 -5 -6 6 -1 11 2
17 5 13 3 -3 4 -12 1 -19z m4618 -343 c78 -38 111 -43 156 -19 17 8 32 14 33
12 1 -2 17 -50 35 -108 35 -110 59 -165 95 -215 11 -16 21 -36 22 -43 2 -8 4
-15 6 -15 30 -15 45 -27 52 -44 9 -19 12 -19 60 -5 28 7 73 23 99 35 38 17 47
25 43 40 -8 33 58 15 91 -23 15 -18 32 -37 37 -44 58 -60 127 -186 141 -255 7
-31 5 -33 -11 -26 -11 4 -28 10 -39 12 -13 3 -32 29 -54 74 -19 38 -43 76 -53
86 -10 9 -18 28 -18 42 0 40 -24 109 -44 129 -21 19 -21 20 4 -98 7 -30 10
-83 7 -117 -9 -97 -46 -153 -124 -188 -16 -7 -20 -14 -14 -24 12 -19 46 -6 92
36 46 42 68 83 78 150 l7 48 32 -67 c18 -37 39 -88 47 -113 l13 -45 -36 -16
c-106 -44 -285 -55 -419 -24 -49 11 -52 13 -37 28 16 15 15 17 -2 27 -10 5
-55 45 -100 88 -57 55 -88 77 -106 77 -31 0 -38 25 -32 108 3 37 -1 58 -10 68
-8 7 -17 42 -21 76 -8 76 -36 194 -74 306 -16 45 -28 82 -27 82 1 0 33 -16 71
-35z m-1840 -510 c19 -30 35 -64 35 -75 0 -12 4 -19 9 -16 5 3 12 -5 15 -19 5
-19 13 -25 32 -25 58 0 -1 -37 -96 -60 -19 -5 -66 -12 -104 -15 -67 -7 -68 -7
-57 13 7 14 8 23 1 27 -6 3 3 17 19 31 41 34 66 79 81 142 6 28 16 52 21 52 5
0 25 -25 44 -55z m-2578 -365 c7 -36 16 -83 19 -105 6 -39 6 -39 -10 -18 -12
15 -26 22 -46 20 -29 -2 -30 -3 -30 -54 0 -61 -10 -66 -49 -24 -25 27 -27 36
-29 124 l-2 95 32 11 c96 29 100 28 115 -49z m-183 -2 c3 -13 7 -38 9 -56 l4
-33 -28 31 c-31 33 -59 39 -59 13 -1 -13 -5 -9 -16 10 -18 33 -16 37 28 47 52
12 57 11 62 -12z m3750 -72 c-2 -6 -8 -23 -14 -39 l-10 -27 -20 20 c-11 11
-28 20 -39 20 -10 0 -21 9 -24 20 -4 16 1 21 21 26 15 3 33 9 41 13 17 9 51
-16 45 -33z m629 7 c6 -13 -18 -119 -25 -108 -3 6 -9 26 -13 45 -3 19 -9 43
-11 53 -4 13 1 17 20 17 14 0 27 -3 29 -7z"/>
<path d="M4018 1598 c-25 -36 -42 -70 -40 -82 10 -68 78 -204 94 -188 7 7 1
30 -17 69 -37 81 -55 142 -43 149 16 10 68 86 68 101 0 27 -20 11 -62 -49z"/>
<path d="M8178 6264 c-3 -2 -34 -9 -69 -14 -135 -21 -189 -33 -183 -41 3 -5
37 -6 77 -4 292 21 306 18 364 -71 10 -17 13 -17 23 -4 30 42 -23 114 -93 124
-86 13 -114 15 -119 10z"/>
<path d="M8189 6136 c-2 -2 -39 -6 -81 -9 -107 -7 -220 -64 -159 -80 11 -2 24
0 30 6 8 8 11 7 11 -4 0 -26 124 -129 155 -129 17 0 0 32 -27 52 -120 85 -117
101 25 114 64 7 67 6 67 -15 0 -11 -4 -21 -8 -21 -5 0 -9 -6 -10 -12 -1 -7 -4
-34 -8 -60 -5 -39 -4 -48 9 -48 8 0 17 -8 19 -18 4 -14 16 -19 42 -20 l37 -1
-20 25 c-14 17 -20 41 -20 77 0 29 -3 63 -5 75 -4 16 -1 22 7 19 49 -18 57
-18 57 1 0 30 -32 52 -77 52 -22 0 -42 -2 -44 -4z"/>
<path d="M5976 4537 c-16 -62 -29 -141 -30 -177 -1 -57 1 -65 18 -65 12 0 23
14 36 47 18 49 63 111 116 163 31 30 60 85 46 85 -13 0 -151 -150 -168 -181
-8 -16 -17 -29 -19 -29 -7 0 3 78 24 175 27 126 9 112 -23 -18z"/>
</g>
</svg>
